<svg viewBox="0 0 32 32" xmlns="http://www.w3.org/2000/svg"><g fill="none" fill-rule="evenodd"><path d="M15.223 6.688h-5.146v7.568h4.996c1.339 0 2.466-.116 3.38-.347.914-.232 1.612-.626 2.094-1.183.482-.558.723-1.324.723-2.301 0-.764-.194-1.437-.582-2.02-.388-.581-.927-1.016-1.615-1.304-.651-.275-1.935-.413-3.85-.413m-3.192 11.568h-1.954V27.1c0 1.164-.256 2.022-.769 2.573-.514.55-1.184.826-2.01.826-.889 0-1.577-.288-2.066-.864-.488-.576-.732-1.421-.732-2.535V5.918c0-1.202.269-2.072.808-2.61.538-.54 1.408-.808 2.61-.808h9.07c1.252 0 2.323.053 3.212.16.888.106 1.69.322 2.403.648a6.95 6.95 0 0 1 2.291 1.558 6.816 6.816 0 0 1 1.512 2.357c.344.895.517 1.844.517 2.845 0 2.053-.58 3.694-1.738 4.92-1.158 1.227-2.913 2.098-5.267 2.61.989.527 1.934 1.303 2.836 2.329a23.728 23.728 0 0 1 2.413 3.277c.707 1.158 1.258 2.204 1.652 3.137.395.932.592 1.574.592 1.924 0 .364-.116.723-.348 1.08a2.422 2.422 0 0 1-.948.845c-.401.207-.864.31-1.39.31-.626 0-1.151-.147-1.577-.441a4.25 4.25 0 0 1-1.099-1.117A45.561 45.561 0 0 1 20.8 26.95l-2.234-3.718c-.802-1.365-1.518-2.404-2.151-3.118-.632-.713-1.273-1.202-1.924-1.465-.651-.262-1.471-.394-2.46-.394" fill="#ffffff" class="fill-2fbbf4"></path><path d="M15.223 6.688h-5.146v7.568h4.996c1.339 0 2.466-.116 3.38-.347.914-.232 1.612-.626 2.094-1.183.482-.558.723-1.324.723-2.301 0-.764-.194-1.437-.582-2.02-.388-.581-.927-1.016-1.615-1.304-.651-.275-1.935-.413-3.85-.413Zm-3.192 11.568h-1.954V27.1c0 1.164-.256 2.022-.769 2.573-.514.55-1.184.826-2.01.826-.889 0-1.577-.288-2.066-.864-.488-.576-.732-1.421-.732-2.535V5.918c0-1.202.269-2.072.808-2.61.538-.54 1.408-.808 2.61-.808h9.07c1.252 0 2.323.053 3.212.16.888.106 1.69.322 2.403.648a6.95 6.95 0 0 1 2.291 1.558 6.816 6.816 0 0 1 1.512 2.357c.344.895.517 1.844.517 2.845 0 2.053-.58 3.694-1.738 4.92-1.158 1.227-2.913 2.098-5.267 2.61.989.527 1.934 1.303 2.836 2.329a23.728 23.728 0 0 1 2.413 3.277c.707 1.158 1.258 2.204 1.652 3.137.395.932.592 1.574.592 1.924 0 .364-.116.723-.348 1.08a2.422 2.422 0 0 1-.948.845c-.401.207-.864.31-1.39.31-.626 0-1.151-.147-1.577-.441a4.25 4.25 0 0 1-1.099-1.117A45.561 45.561 0 0 1 20.8 26.95l-2.234-3.718c-.802-1.365-1.518-2.404-2.151-3.118-.632-.713-1.273-1.202-1.924-1.465-.651-.262-1.471-.394-2.46-.394Z" stroke="#ffffff" stroke-linejoin="round" class="stroke-092933"></path><path d="M26.807 27.742c-.043.11-.09.22-.163.332a1.935 1.935 0 0 1-.758.672c-.327.17-.717.254-1.16.254-.528 0-.95-.116-1.293-.353-.374-.258-.7-.59-.97-.987a43.294 43.294 0 0 1-1.234-1.967l-2.235-3.719c-.81-1.38-1.232-1.814-1.882-2.549-.682-.769-2.435-1.239-2.435-1.239.335.135.668.324.997.564.378.277.751.622 1.116 1.034.65.734 1.393 1.81 2.204 3.19l2.235 3.72c.523.871.938 1.532 1.234 1.966.27.397.596.73.97.987.342.237.765.353 1.292.353.444 0 .834-.085 1.161-.254.324-.167.572-.387.758-.672.18-.278.266-.54.266-.809 0-.08-.02-.238-.103-.523M7.298 29c-.742 0-1.293-.225-1.684-.687-.408-.48-.614-1.225-.614-2.212v1c0 .987.206 1.732.614 2.212.391.462.942.687 1.684.687.688 0 1.225-.218 1.644-.667.422-.454.635-1.204.635-2.232v-1c0 1.028-.213 1.778-.635 2.232-.419.45-.956.667-1.644.667" fill="#6fafe3" opacity=".204" class="fill-332e09"></path><path d="M10.078 4.113h7.128" stroke="#ffffff" stroke-dasharray="1,2,6,2,3" stroke-linecap="round" stroke-linejoin="round" class="stroke-ffffff"></path></g></svg>