<svg viewBox="0 0 100 100" xml:space="preserve" xmlns="http://www.w3.org/2000/svg" enable-background="new 0 0 100 100"><g id="Layer_2"><path d="M91.97 25.943a1.448 1.448 0 0 0-1.09-.391c-5.671.37-10.224-.797-13.898-3.569-4.972-3.753-7.35-9.173-7.948-18.125A1.458 1.458 0 0 0 67.58 2.5H52.555c-.804 0-1.456.652-1.456 1.456.007 19.562.016 36.716-.036 57.302.029 1.904 2.871 1.932 2.913.008.053-20.166.038-36.758.036-55.853h12.22c.596 12.428 8.518 23.659 23.286 23.113v12.872c-6.227-.428-12.185-.72-17.88-3.711-1.501-.476-4.689-2.964-5.259-.176-.16 1.273.188 22.01.122 28.612-.79 35.709-51.165 39.173-55.899 2.773-1.414-14.44 9.694-28.107 24.257-29.845 1.91-.263 1.548-3.09-.345-2.892-16.098 1.92-28.376 17.042-26.81 33.022 5.225 40.104 60.837 36.295 61.71-3.09.064-7.238-.213-21.13-.158-26.276 2.77 1.224 5.482 2.547 8.368 3.17 4.387.951 8.801 1.016 13.205 1.459.834.102 1.62-.612 1.602-1.449V27.008a1.46 1.46 0 0 0-.461-1.065z" fill="#ffffff" class="fill-000000"></path><path d="M22.926 66.753c.262 17.034 23.632 21.77 30.106 5.724a1.455 1.455 0 0 0-.839-1.88 1.454 1.454 0 0 0-1.881.839c-5.238 13.011-24.256 9.18-24.473-4.691-.017-6.267 4.321-11.536 10.315-12.53 2.166-.353 4.702-.03 7.012-.041.805 0 1.456-.652 1.456-1.456v-15.16c-.029-1.9-2.879-1.926-2.913 0v13.674c-9.858-1.376-18.745 5.063-18.783 15.521z" fill="#ffffff" class="fill-000000"></path></g></svg>